<svg width="48" height="48" viewBox="0 0 48 48" fill="none" xmlns="http://www.w3.org/2000/svg">
  <!-- Central User -->
  <circle cx="24" cy="24" r="7" fill="#FF6B35"/>
  <circle cx="24" cy="21" r="3" fill="#FFFFFF"/>
  <path d="M19 27C19 27 20 30 24 30C28 30 29 27 29 27" stroke="#FFFFFF" stroke-width="1.5" stroke-linecap="round"/>
  
  <!-- Friend 1 -->
  <circle cx="12" cy="17" r="5" fill="#FF8A5B"/>
  <circle cx="12" cy="15" r="2" fill="#FFFFFF"/>
  <path d="M9 18.5C9 18.5 10 20.5 12 20.5C14 20.5 15 18.5 15 18.5" stroke="#FFFFFF" stroke-width="1.5" stroke-linecap="round"/>
  
  <!-- Friend 2 -->
  <circle cx="12" cy="31" r="5" fill="#FF8A5B"/>
  <circle cx="12" cy="29" r="2" fill="#FFFFFF"/>
  <path d="M9 32.5C9 32.5 10 34.5 12 34.5C14 34.5 15 32.5 15 32.5" stroke="#FFFFFF" stroke-width="1.5" stroke-linecap="round"/>
  
  <!-- Friend 3 -->
  <circle cx="36" cy="17" r="5" fill="#FF8A5B"/>
  <circle cx="36" cy="15" r="2" fill="#FFFFFF"/>
  <path d="M33 18.5C33 18.5 34 20.5 36 20.5C38 20.5 39 18.5 39 18.5" stroke="#FFFFFF" stroke-width="1.5" stroke-linecap="round"/>
  
  <!-- Friend 4 -->
  <circle cx="36" cy="31" r="5" fill="#FF8A5B"/>
  <circle cx="36" cy="29" r="2" fill="#FFFFFF"/>
  <path d="M33 32.5C33 32.5 34 34.5 36 34.5C38 34.5 39 32.5 39 32.5" stroke="#FFFFFF" stroke-width="1.5" stroke-linecap="round"/>
  
  <!-- Connection Lines -->
  <line x1="17" y1="21" x2="31" y2="21" stroke="#FF6B35" stroke-width="1.5" stroke-dasharray="2 2"/>
  <line x1="17" y1="27" x2="31" y2="27" stroke="#FF6B35" stroke-width="1.5" stroke-dasharray="2 2"/>
  <line x1="16" y1="19" x2="20" y2="21" stroke="#FF6B35" stroke-width="1.5" stroke-dasharray="2 2"/>
  <line x1="16" y1="29" x2="20" y2="27" stroke="#FF6B35" stroke-width="1.5" stroke-dasharray="2 2"/>
  <line x1="28" y1="21" x2="32" y2="19" stroke="#FF6B35" stroke-width="1.5" stroke-dasharray="2 2"/>
  <line x1="28" y1="27" x2="32" y2="29" stroke="#FF6B35" stroke-width="1.5" stroke-dasharray="2 2"/>
</svg> 