<svg width="512" height="512" viewBox="0 0 512 512" fill="none" xmlns="http://www.w3.org/2000/svg">
  <rect width="512" height="512" rx="128" fill="#FF6B35" />
  <g filter="url(#filter0_d)">
    <path d="M345 169C345 146.909 327.091 129 305 129H207C184.909 129 167 146.909 167 169V343C167 365.091 184.909 383 207 383H305C327.091 383 345 365.091 345 343V169Z" fill="white"/>
  </g>
  <path d="M305 129H267L267 236L207 236L207 299L267 299L267 383H305C327.091 383 345 365.091 345 343V169C345 146.909 327.091 129 305 129Z" fill="#FFD4C2"/>
  <path d="M267 236H207V299H267V236Z" fill="#FF6B35"/>
  <path fill-rule="evenodd" clip-rule="evenodd" d="M226 161C226 166.523 221.523 171 216 171C210.477 171 206 166.523 206 161C206 155.477 210.477 151 216 151C221.523 151 226 155.477 226 161ZM306 161C306 166.523 301.523 171 296 171C290.477 171 286 166.523 286 161C286 155.477 290.477 151 296 151C301.523 151 306 155.477 306 161ZM306 341C306 346.523 301.523 351 296 351C290.477 351 286 346.523 286 341C286 335.477 290.477 331 296 331C301.523 331 306 335.477 306 341ZM226 341C226 346.523 221.523 351 216 351C210.477 351 206 346.523 206 341C206 335.477 210.477 331 216 331C221.523 331 226 335.477 226 341Z" fill="#FF6B35"/>
  <defs>
    <filter id="filter0_d" x="155" y="121" width="202" height="278" filterUnits="userSpaceOnUse" color-interpolation-filters="sRGB">
      <feFlood flood-opacity="0" result="BackgroundImageFix"/>
      <feColorMatrix in="SourceAlpha" type="matrix" values="0 0 0 0 0 0 0 0 0 0 0 0 0 0 0 0 0 0 127 0"/>
      <feOffset dy="4"/>
      <feGaussianBlur stdDeviation="6"/>
      <feColorMatrix type="matrix" values="0 0 0 0 0 0 0 0 0 0 0 0 0 0 0 0 0 0 0.15 0"/>
      <feBlend mode="normal" in2="BackgroundImageFix" result="effect1_dropShadow"/>
      <feBlend mode="normal" in="SourceGraphic" in2="effect1_dropShadow" result="shape"/>
    </filter>
  </defs>
</svg> 