<svg width="1200" height="630" viewBox="0 0 1200 630" fill="none" xmlns="http://www.w3.org/2000/svg">
  <rect width="1200" height="630" fill="#FF6B35" />
  
  <!-- Background Pattern -->
  <g opacity="0.1">
    <rect x="0" y="0" width="100" height="100" fill="white" />
    <rect x="200" y="0" width="100" height="100" fill="white" />
    <rect x="400" y="0" width="100" height="100" fill="white" />
    <rect x="600" y="0" width="100" height="100" fill="white" />
    <rect x="800" y="0" width="100" height="100" fill="white" />
    <rect x="1000" y="0" width="100" height="100" fill="white" />
    <rect x="100" y="100" width="100" height="100" fill="white" />
    <rect x="300" y="100" width="100" height="100" fill="white" />
    <rect x="500" y="100" width="100" height="100" fill="white" />
    <rect x="700" y="100" width="100" height="100" fill="white" />
    <rect x="900" y="100" width="100" height="100" fill="white" />
    <rect x="1100" y="100" width="100" height="100" fill="white" />
    <!-- Pattern repeats -->
    <rect x="0" y="200" width="100" height="100" fill="white" />
    <rect x="200" y="200" width="100" height="100" fill="white" />
    <rect x="400" y="200" width="100" height="100" fill="white" />
    <rect x="600" y="200" width="100" height="100" fill="white" />
    <rect x="800" y="200" width="100" height="100" fill="white" />
    <rect x="1000" y="200" width="100" height="100" fill="white" />
    <rect x="100" y="300" width="100" height="100" fill="white" />
    <rect x="300" y="300" width="100" height="100" fill="white" />
    <rect x="500" y="300" width="100" height="100" fill="white" />
    <rect x="700" y="300" width="100" height="100" fill="white" />
    <rect x="900" y="300" width="100" height="100" fill="white" />
    <rect x="1100" y="300" width="100" height="100" fill="white" />
    <rect x="0" y="400" width="100" height="100" fill="white" />
    <rect x="200" y="400" width="100" height="100" fill="white" />
    <rect x="400" y="400" width="100" height="100" fill="white" />
    <rect x="600" y="400" width="100" height="100" fill="white" />
    <rect x="800" y="400" width="100" height="100" fill="white" />
    <rect x="1000" y="400" width="100" height="100" fill="white" />
    <rect x="100" y="500" width="100" height="100" fill="white" />
    <rect x="300" y="500" width="100" height="100" fill="white" />
    <rect x="500" y="500" width="100" height="100" fill="white" />
    <rect x="700" y="500" width="100" height="100" fill="white" />
    <rect x="900" y="500" width="100" height="100" fill="white" />
    <rect x="1100" y="500" width="100" height="100" fill="white" />
  </g>
  
  <!-- Content Container -->
  <rect x="225" y="115" width="750" height="400" rx="20" fill="white" filter="drop-shadow(0px 4px 24px rgba(0, 0, 0, 0.1))" />
  
  <!-- Logo -->
  <g transform="translate(300, 165) scale(0.6)">
    <rect width="512" height="512" rx="128" fill="#FF6B35" />
    <g filter="url(#filter0_d)">
      <path d="M345 169C345 146.909 327.091 129 305 129H207C184.909 129 167 146.909 167 169V343C167 365.091 184.909 383 207 383H305C327.091 383 345 365.091 345 343V169Z" fill="white"/>
    </g>
    <path d="M305 129H267L267 236L207 236L207 299L267 299L267 383H305C327.091 383 345 365.091 345 343V169C345 146.909 327.091 129 305 129Z" fill="#FFD4C2"/>
    <path d="M267 236H207V299H267V236Z" fill="#FF6B35"/>
    <path fill-rule="evenodd" clip-rule="evenodd" d="M226 161C226 166.523 221.523 171 216 171C210.477 171 206 166.523 206 161C206 155.477 210.477 151 216 151C221.523 151 226 155.477 226 161ZM306 161C306 166.523 301.523 171 296 171C290.477 171 286 166.523 286 161C286 155.477 290.477 151 296 151C301.523 151 306 155.477 306 161ZM306 341C306 346.523 301.523 351 296 351C290.477 351 286 346.523 286 341C286 335.477 290.477 331 296 331C301.523 331 306 335.477 306 341ZM226 341C226 346.523 221.523 351 216 351C210.477 351 206 346.523 206 341C206 335.477 210.477 331 216 331C221.523 331 226 335.477 226 341Z" fill="#FF6B35"/>
  </g>
  
  <!-- Text -->
  <text x="600" y="220" font-family="'Arial', sans-serif" font-weight="800" font-size="56" fill="#333333" text-anchor="middle">LoopList</text>
  <text x="600" y="290" font-family="'Arial', sans-serif" font-weight="400" font-size="28" fill="#666666" text-anchor="middle">Social Streak Tracker for Micro-Habits</text>
  
  <!-- Features -->
  <g transform="translate(320, 340)">
    <circle cx="20" cy="20" r="20" fill="#FF6B35" opacity="0.2" />
    <text x="50" y="25" font-family="'Arial', sans-serif" font-weight="600" font-size="20" fill="#333333">Build daily streaks</text>
  </g>
  
  <g transform="translate(320, 390)">
    <circle cx="20" cy="20" r="20" fill="#FF6B35" opacity="0.2" />
    <text x="50" y="25" font-family="'Arial', sans-serif" font-weight="600" font-size="20" fill="#333333">Share your progress</text>
  </g>
  
  <g transform="translate(600, 340)">
    <circle cx="20" cy="20" r="20" fill="#FF6B35" opacity="0.2" />
    <text x="50" y="25" font-family="'Arial', sans-serif" font-weight="600" font-size="20" fill="#333333">Get community support</text>
  </g>
  
  <g transform="translate(600, 390)">
    <circle cx="20" cy="20" r="20" fill="#FF6B35" opacity="0.2" />
    <text x="50" y="25" font-family="'Arial', sans-serif" font-weight="600" font-size="20" fill="#333333">Celebrate achievements</text>
  </g>
  
  <!-- Fire Icon -->
  <g transform="translate(825, 350) scale(2)">
    <path d="M25 30C25 33.866 21.866 37 18 37C14.134 37 11 33.866 11 30C11 26.134 12 25 12 25C12 25 14 29 18 29C22 29 24 25 24 25C24 25 25 26.134 25 30Z" fill="#FF6B35"/>
    <path d="M18 12C16.142 15.6667 12 19.9412 12 25C12 25 14 21 18 21C22 21 24 25 24 25C24 19.9412 19.8571 15.6667 18 12Z" fill="#FF6B35"/>
  </g>
    
  <defs>
    <filter id="filter0_d" x="155" y="121" width="202" height="278" filterUnits="userSpaceOnUse" color-interpolation-filters="sRGB">
      <feFlood flood-opacity="0" result="BackgroundImageFix"/>
      <feColorMatrix in="SourceAlpha" type="matrix" values="0 0 0 0 0 0 0 0 0 0 0 0 0 0 0 0 0 0 127 0"/>
      <feOffset dy="4"/>
      <feGaussianBlur stdDeviation="6"/>
      <feColorMatrix type="matrix" values="0 0 0 0 0 0 0 0 0 0 0 0 0 0 0 0 0 0 0.15 0"/>
      <feBlend mode="normal" in2="BackgroundImageFix" result="effect1_dropShadow"/>
      <feBlend mode="normal" in="SourceGraphic" in2="effect1_dropShadow" result="shape"/>
    </filter>
  </defs>
</svg> 